<svg xmlns="http://www.w3.org/2000/svg" viewBox="0 0 46.98 34.57"><defs><style>.cls-1{fill:red;}</style></defs><g id="Layer_2" data-name="Layer 2"><g id="Layer_1-2" data-name="Layer 1"><path class="cls-1" d="M46.17,8.8H35.52a.81.81,0,1,0,0,1.61h2.94v1.76h-.38a.79.79,0,0,0-.74.5l-.75,1.82-3.53.8-1.68-1.67a.76.76,0,0,0-.57-.24H16.17a.76.76,0,0,0-.57.24l-1.68,1.67-3.53-.8-.75-1.82a.79.79,0,0,0-.74-.5H8.51V10.41h3a.81.81,0,1,0,0-1.61H.81a.81.81,0,1,0,0,1.61H3.75v1.76H3.12a.81.81,0,0,0-.81.81v4.28a.8.8,0,0,0,.55.76L14,21.83,14.7,23h-.82a.84.84,0,0,0-.58.24L8.14,28.39A.78.78,0,0,0,7.9,29v4.8a.8.8,0,0,0,.8.8H13a.81.81,0,0,0,.57-.23.84.84,0,0,0,.24-.58V30.67l2.23-2.23h3.67a8.56,8.56,0,0,0,7.52,0h3.67l2.23,2.23v3.09a.84.84,0,0,0,.24.58.81.81,0,0,0,.57.23h4.32a.8.8,0,0,0,.8-.8V29a.81.81,0,0,0-.23-.57l-5.17-5.16A.84.84,0,0,0,33.1,23h-.82L33,21.83,44.12,18a.8.8,0,0,0,.55-.76V13a.81.81,0,0,0-.81-.81h-.63V10.41h2.94a.81.81,0,1,0,0-1.61ZM5.37,10.41H6.9v1.76H5.37ZM3.93,13.78H8.35l.71,1.71a.82.82,0,0,0,.56.48l3.79.86L13.63,20l-9.7-3.32Zm11.8,13a.8.8,0,0,0-.57.24l-2.71,2.7a.8.8,0,0,0-.24.57V33H9.51V29.3l4.7-4.69h1.48l.31.51a8.73,8.73,0,0,0,1.37,1.7Zm1.65-2.55L15.31,20.9,15,16.49,16.5,15h14L32,16.49l-.3,4.41L29.6,24.27a7.16,7.16,0,0,1-12.22,0Zm15.39.34,4.69,4.69V33H34.77V30.33a.8.8,0,0,0-.24-.57l-2.71-2.7a.8.8,0,0,0-.57-.24H29.61A8.73,8.73,0,0,0,31,25.12l.31-.51Zm10.28-7.93L33.35,20l.22-3.17L37.35,16a.81.81,0,0,0,.57-.48l.7-1.71h4.43Zm-1.44-4.51H40.08V10.41h1.53Z"/><path class="cls-1" d="M14.61,5.3a12.53,12.53,0,0,1,17.76,0,.83.83,0,0,0,.57.23.81.81,0,0,0,.57-1.38,14.17,14.17,0,0,0-20,0A.81.81,0,1,0,14.61,5.3Z"/><path class="cls-1" d="M30.37,8.1a.81.81,0,0,0,.57-1.38,10.55,10.55,0,0,0-14.9,0,.81.81,0,0,0,1.14,1.15,8.91,8.91,0,0,1,12.62,0A.85.85,0,0,0,30.37,8.1Z"/><path class="cls-1" d="M18.61,9.29a.81.81,0,1,0,1.13,1.15,5.3,5.3,0,0,1,7.49,0,.85.85,0,0,0,.57.23.82.82,0,0,0,.58-.24.81.81,0,0,0,0-1.14,6.9,6.9,0,0,0-9.76,0Z"/><path class="cls-1" d="M23.46,18.17a3.75,3.75,0,1,0,3.75,3.75A3.75,3.75,0,0,0,23.46,18.17Zm0,5.89a2.14,2.14,0,1,1,2.14-2.14A2.13,2.13,0,0,1,23.46,24.06Z"/></g></g></svg>