<svg xmlns="http://www.w3.org/2000/svg" xmlns:xlink="http://www.w3.org/1999/xlink" viewBox="0 0 697.56 697.56"><defs><style>.cls-1{fill:#262626;}.cls-2{fill:#515151;}.cls-3{fill:#707070;}.cls-4{font-size:11px;}.cls-4,.cls-5{fill:#fff;font-family:InputMonoCondensed-Italic, Input Mono Condensed;font-style:italic;}.cls-5{font-size:23px;}.cls-6{stroke:#00e7ff;fill:url(#linear-gradient);}.cls-6,.cls-7{stroke-miterlimit:10;}.cls-7{fill:none;stroke:#f2f2f2;stroke-width:0.75px;}.cls-8{fill:#f2f2f2;}</style><linearGradient id="linear-gradient" x1="419" y1="673.06" x2="647" y2="673.06" gradientUnits="userSpaceOnUse"><stop offset="0" stop-color="#262626"/><stop offset="1" stop-color="#707070"/></linearGradient></defs><g id="Layer_2" data-name="Layer 2"><g id="Layer_1-2" data-name="Layer 1"><rect class="cls-1" width="697.56" height="697.56"/><rect class="cls-2" x="34.18" y="66.8" width="221.21" height="221.21"/><rect class="cls-2" x="492.78" y="66.8" width="147.84" height="147.84"/><rect class="cls-2" x="398.61" y="214.09" width="94.72" height="94.72"/><rect class="cls-2" x="301.15" y="66.26" width="94.72" height="94.72"/><rect class="cls-2" x="97.46" y="556.3" width="94.72" height="117.17"/><rect class="cls-2" x="97.46" y="406.28" width="171.93" height="171.93"/><rect class="cls-2" x="419.41" y="383.28" width="221.21" height="221.21"/><rect class="cls-3" x="65.94" y="89.8" width="64.61" height="71.18"/><rect class="cls-3" x="163.4" y="89.8" width="64.61" height="71.18"/><rect class="cls-3" x="65.94" y="187.26" width="64.61" height="71.18"/><rect class="cls-3" x="32.85" y="336.19" width="64.61" height="71.18"/><rect class="cls-3" x="112.79" y="590.25" width="64.61" height="71.18"/><rect class="cls-3" x="446.12" y="404.08" width="64.61" height="71.18"/><rect class="cls-3" x="555.2" y="404.08" width="64.61" height="176.31"/><rect class="cls-3" x="555.2" y="509.21" width="64.61" height="71.18"/><rect class="cls-3" x="445.7" y="509.21" width="64.61" height="71.18"/><rect class="cls-3" x="576.01" y="67.99" width="64.61" height="145.64"/><text class="cls-4" transform="translate(416.93 654.46)">Ground level</text><text class="cls-5" transform="translate(36.8 40.46)">MAP</text><text class="cls-4" transform="translate(582.17 654.46)">Max height</text><rect class="cls-6" x="419" y="665.56" width="228" height="15"/><line class="cls-7" x1="499" y1="651.06" x2="569.47" y2="651.06"/><path class="cls-8" d="M574,651.06a22.65,22.65,0,0,0-6.41,3.57l1.29-3.57-1.29-3.56A22.87,22.87,0,0,0,574,651.06Z"/></g></g></svg>