<svg xmlns="http://www.w3.org/2000/svg" viewBox="0 0 65.89 57.09"><defs><style>.cls-1{fill:lime;}</style></defs><g id="Layer_2" data-name="Layer 2"><g id="Layer_1-2" data-name="Layer 1"><path class="cls-1" d="M49.69,6.28C45.62,2.24,39.8,0,32.88,0h0C26,0,20.17,2.2,16.15,6.21S9.9,16,10,23.17a12.26,12.26,0,0,0,1.38-1.52c2.18-2.58,7.65-5.3,11.87-5.34C29.55,16.27,32,20,33,22a5.75,5.75,0,0,1,1.33-2A11.55,11.55,0,0,1,43,16.43c5.46.05,10.37,4.64,13,7.17,0-7.49-2.26-13.29-6.33-17.32ZM13,23.06a23.2,23.2,0,0,0-3,4.57L10,34c.08,7,2.26,12.75,6.24,16.78S26,57.09,32.88,57.09s12.74-2.24,16.81-6.28S56,41,56,34V27.73c-1.67-2.42-7.48-9.06-13.05-9.11a9.25,9.25,0,0,0-7.1,2.84A8.78,8.78,0,0,0,34,24.3a1.09,1.09,0,0,1-2.06,0s-3.43-5.7-8.72-5.78c-3.28,0-8.24,2.22-10.22,4.55ZM2,22.83A4.17,4.17,0,0,0,0,25a.77.77,0,0,0,.23.72l6,7.77A1.1,1.1,0,0,0,7.1,34h.67l0-12.08a6.23,6.23,0,0,0-1.63-.23A8.1,8.1,0,0,0,2,22.84Zm56.17-1,0,12.09h.66a1.15,1.15,0,0,0,.86-.43l6-7.77a1,1,0,0,0,.22-.72c-.26-1.11-1.19-1.65-2-2.2a7.22,7.22,0,0,0-4.13-1.18,6.2,6.2,0,0,0-1.57.21ZM21.92,24.42a6.68,6.68,0,1,1-6.67,6.68A6.7,6.7,0,0,1,21.92,24.42Zm21.92,0a6.68,6.68,0,1,1-6.68,6.68A6.7,6.7,0,0,1,43.84,24.42ZM21.92,26.61A4.49,4.49,0,1,0,26.4,31.1,4.47,4.47,0,0,0,21.92,26.61Zm21.92,0a4.49,4.49,0,1,0,4.48,4.49A4.48,4.48,0,0,0,43.84,26.61ZM44,43.69a1.1,1.1,0,1,1,0,2.19H42.48l-1.93,4.8a1.09,1.09,0,0,1-2,0L36.6,45.89l-7.28,0-1.91,4.78a1.1,1.1,0,0,1-2,0l-1.92-4.77H22a1.1,1.1,0,1,1,0-2.19Z"/></g></g></svg>